<svg xmlns="http://www.w3.org/2000/svg" viewBox="0 0 1200 300" width="1200" height="300" role="img" aria-label="Kiran Girishkumar, physical design">
<style>
.t{fill:none;stroke:#d0d7de;stroke-width:2}
.p{fill:none;stroke:#bc4c00;stroke-width:2.5;stroke-dasharray:60 900;stroke-dashoffset:960;animation:run 5.4s linear infinite}
@keyframes run{to{stroke-dashoffset:0}}
.v{fill:#d0d7de}
.m{font:600 12px ui-monospace,SFMono-Regular,Menlo,Consolas,monospace}
.n{font:700 44px -apple-system,BlinkMacSystemFont,'Segoe UI',Helvetica,Arial,sans-serif;fill:#1f2328}
.sub{font:400 19px -apple-system,BlinkMacSystemFont,'Segoe UI',Helvetica,Arial,sans-serif;fill:#59636e}
.tag{font:500 15px ui-monospace,SFMono-Regular,Menlo,Consolas,monospace;fill:#bc4c00}
.s rect{fill:none;stroke:#d0d7de;stroke-width:1.5}
.s text{font:500 13px -apple-system,BlinkMacSystemFont,'Segoe UI',Helvetica,Arial,sans-serif;fill:#59636e}
.s{animation:lit 2.8s ease-in-out infinite}
@keyframes lit{0%,70%,100%{opacity:.55}20%{opacity:1}}
.ar{font:400 18px -apple-system,BlinkMacSystemFont,'Segoe UI',Helvetica,Arial,sans-serif;fill:#59636e}
@media (prefers-reduced-motion:reduce){.p,.s{animation:none}}
</style>
<rect width="1200" height="300" fill="#ffffff"/>
<path d="M620 40 H760 V110 H900 V60 H1180" class="t"/><path d="M640 150 H720 V200 H880 V140 H1000 V230 H1180" class="t"/><path d="M740 250 H780 V180 H960 V270 H1180" class="t"/><path d="M700 20 V90 H820 V250" class="t"/><path d="M1040 20 V120 H1120 V280" class="t"/><path d="M620 40 H760 V110 H900 V60 H1180" class="p" style="animation-delay:0.0s"/><path d="M640 150 H720 V200 H880 V140 H1000 V230 H1180" class="p" style="animation-delay:0.9s"/><path d="M740 250 H780 V180 H960 V270 H1180" class="p" style="animation-delay:1.8s"/><path d="M700 20 V90 H820 V250" class="p" style="animation-delay:2.7s"/><path d="M1040 20 V120 H1120 V280" class="p" style="animation-delay:3.6s"/><rect x="756" y="106" width="8" height="8" class="v"/><rect x="896" y="56" width="8" height="8" class="v"/><rect x="716" y="196" width="8" height="8" class="v"/><rect x="876" y="136" width="8" height="8" class="v"/><rect x="996" y="226" width="8" height="8" class="v"/><rect x="776" y="176" width="8" height="8" class="v"/><rect x="956" y="266" width="8" height="8" class="v"/><rect x="816" y="86" width="8" height="8" class="v"/><rect x="1036" y="116" width="8" height="8" class="v"/><rect x="1116" y="116" width="8" height="8" class="v"/><rect x="1000" y="150" width="120" height="60" rx="3" fill="none" stroke="#bc4c00" stroke-width="1.5"/><text x="1060" y="185" text-anchor="middle" class="m" fill="#bc4c00">CPU_MACRO</text>
<text x="40" y="96" class="n">Kiran Girishkumar</text>
<text x="40" y="134" class="sub">Physical design · RTL to GDSII · M.Sc. ICT @ FAU Erlangen-Nürnberg</text>
<text x="40" y="176" class="tag">$ openroad --design picorv32 → 238 MHz · 0 DRC · WNS ≥ 0</text>
<g class="s" style="animation-delay:0.0s"><rect x="40" y="232" width="66" height="28" rx="5"/><text x="73.0" y="251" text-anchor="middle">RTL</text></g><text x="111" y="251" class="ar">›</text><g class="s" style="animation-delay:0.35s"><rect x="122" y="232" width="66" height="28" rx="5"/><text x="155.0" y="251" text-anchor="middle">Synth</text></g><text x="193" y="251" class="ar">›</text><g class="s" style="animation-delay:0.7s"><rect x="204" y="232" width="84" height="28" rx="5"/><text x="246.0" y="251" text-anchor="middle">Floorplan</text></g><text x="293" y="251" class="ar">›</text><g class="s" style="animation-delay:1.0499999999999998s"><rect x="304" y="232" width="66" height="28" rx="5"/><text x="337.0" y="251" text-anchor="middle">PDN</text></g><text x="375" y="251" class="ar">›</text><g class="s" style="animation-delay:1.4s"><rect x="386" y="232" width="66" height="28" rx="5"/><text x="419.0" y="251" text-anchor="middle">Place</text></g><text x="457" y="251" class="ar">›</text><g class="s" style="animation-delay:1.75s"><rect x="468" y="232" width="66" height="28" rx="5"/><text x="501.0" y="251" text-anchor="middle">CTS</text></g><text x="539" y="251" class="ar">›</text><g class="s" style="animation-delay:2.0999999999999996s"><rect x="550" y="232" width="66" height="28" rx="5"/><text x="583.0" y="251" text-anchor="middle">Route</text></g><text x="621" y="251" class="ar">›</text><g class="s" style="animation-delay:2.4499999999999997s"><rect x="632" y="232" width="84" height="28" rx="5"/><text x="674.0" y="251" text-anchor="middle">Sign-off</text></g>
</svg>